<?xml version="1.0" standalone="no"?>
<!DOCTYPE svg PUBLIC "-//W3C//DTD SVG 1.1//EN" "http://www.w3.org/Graphics/SVG/1.1/DTD/svg11.dtd" >
<svg xmlns="http://www.w3.org/2000/svg">
<metadata>
This is a custom SVG webfont generated by Font Squirrel.
Copyright   : Copyright c 1989 Adobe Systems Incorporated  All Rights ReservedTrade Gothic is a trademark of Linotype AG andor its subsidiaries
</metadata>
<defs>
<font id="TradeGothicRegular" horiz-adv-x="1024" >
<font-face units-per-em="2048" ascent="1638" descent="-410" />
<missing-glyph horiz-adv-x="624" />
<glyph unicode=" "  horiz-adv-x="624" />
<glyph unicode="&#x09;" horiz-adv-x="624" />
<glyph unicode="&#xa0;" horiz-adv-x="624" />
<glyph unicode="!" horiz-adv-x="681" d="M231 1479h218l-43 -1012h-132zM240 0v225h200v-225h-200z" />
<glyph unicode="&#x22;" horiz-adv-x="681" d="M156 926v553h127v-553h-127zM399 926v553h127v-553h-127z" />
<glyph unicode="#" horiz-adv-x="1251" d="M125 471v115h219l41 311h-203v115h219l64 467h127l-64 -467h279l61 467h127l-61 -467h192v-115h-208l-44 -311h195v-115h-211l-63 -471h-127l63 471h-276l-64 -471h-127l64 471h-203zM471 586h277l43 311h-279z" />
<glyph unicode="$" horiz-adv-x="1251" d="M113 268l118 90q150 -221 332 -231v571q-414 98 -413 404q0 180 129 284q115 92 284 93v157h139v-157q117 -8 226 -84q94 -66 153 -158l-106 -86q-102 170 -273 201v-535q229 -74 326 -162q109 -98 109 -266t-128 -278.5t-307 -110.5v-254h-139v254q-227 4 -450 268z M297 1126q2 -219 266 -272v498q-121 2 -194.5 -61t-71.5 -165zM702 127q117 6 202 74.5t85 175.5q0 121 -90 192q-61 47 -197 90v-532z" />
<glyph unicode="%" horiz-adv-x="1820" d="M123 1139q0 143 99.5 241.5t242.5 98.5t242.5 -98.5t99.5 -241.5t-99.5 -241.5t-242.5 -98.5t-242.5 98.5t-99.5 241.5zM250 1139q0 -94 61.5 -153.5t153.5 -59.5t153.5 59t61.5 154q0 94 -61.5 153.5t-153.5 59.5t-153.5 -59.5t-61.5 -153.5zM424 -20l850 1519h121 l-850 -1519h-121zM1014 340q0 143 99 241.5t243 98.5q143 0 242.5 -98.5t99.5 -241.5t-99.5 -241.5t-242.5 -98.5t-242.5 98.5t-99.5 241.5zM1141 340q0 -94 61.5 -153.5t153.5 -59.5t153.5 59.5t61.5 153.5t-61.5 153.5t-153.5 59.5t-153.5 -59.5t-61.5 -153.5z" />
<glyph unicode="&#x26;" horiz-adv-x="1366" d="M90 403q0 244 322 447q-117 174 -117 354q0 129 90 212t242 83q131 0 217 -73.5t86 -200.5q0 -115 -105 -230q-66 -74 -207 -176q115 -207 334 -446q90 117 133 372l136 -32q-51 -274 -166 -441q45 -49 122.5 -87t120.5 -38v-147h-53q-55 0 -141 43t-150 104 q-156 -168 -422 -167q-178 0 -307 114q-135 123 -135 309zM254 393q0 -131 96 -207q84 -68 203 -67q172 0 299 123q-229 264 -373 495q-109 -72 -157 -133q-68 -88 -68 -211zM459 1198q0 -102 86 -264q221 141 221 289q0 66 -44 107.5t-104 41.5q-76 0 -117.5 -52 t-41.5 -122z" />
<glyph unicode="'" horiz-adv-x="454" d="M164 926v553h127v-553h-127z" />
<glyph unicode="(" horiz-adv-x="681" d="M135 668q0 459 281 831h159q-293 -395 -292 -842q0 -418 290 -829h-151q-287 379 -287 840z" />
<glyph unicode=")" horiz-adv-x="681" d="M106 -172q293 395 293 842q0 418 -290 829h151q287 -379 287 -840q0 -459 -281 -831h-160z" />
<glyph unicode="*" d="M152 1161l36 133l281 -133l12 8l-45 310h137l-36 -305l14 -13l270 142l51 -138l-305 -63l-6 -17l217 -217l-110 -86l-150 275h-16l-150 -271l-106 80l213 234l-4 14z" />
<glyph unicode="+" horiz-adv-x="1228" d="M82 469v127h469v469h127v-469h469v-127h-469v-469h-127v469h-469z" />
<glyph unicode="," horiz-adv-x="624" d="M197 -303l96 303h-82v225h201v-225l-129 -303h-86z" />
<glyph unicode="-" horiz-adv-x="681" d="M82 469v127h516v-127h-516z" />
<glyph unicode="." horiz-adv-x="624" d="M211 0v225h201v-225h-201z" />
<glyph unicode="/" horiz-adv-x="569" d="M-16 -20l477 1519h125l-480 -1519h-122z" />
<glyph unicode="0" horiz-adv-x="1251" d="M102 739q0 760 523 760q522 0 522 -760t-522 -759q-523 -1 -523 759zM258 739q0 -633 367 -633t366 633q0 633 -366 633q-367 0 -367 -633z" />
<glyph unicode="1" horiz-adv-x="1251" d="M289 1300v97q139 43 155 47q86 29 129 55h148v-1372h252v-127h-656v127h256v1202z" />
<glyph unicode="2" horiz-adv-x="1251" d="M135 0v156q104 213 324 387q166 127 332 252q152 139 151 307q0 129 -79 199.5t-220 70.5q-147 0 -244 -104q-84 -88 -104 -217l-145 32q96 416 497 416q190 0 316 -100q135 -111 135 -293q0 -193 -174 -365q-4 -2 -353 -280q-217 -172 -280 -334h805v-127h-961z" />
<glyph unicode="3" horiz-adv-x="1251" d="M70 270l118 82q182 -246 406 -246q162 0 255 77t93 210q0 332 -418 332h-145v127h88q422 0 422 276q0 109 -80 176.5t-191 67.5q-125 0 -208 -55q-63 -41 -148 -150l-121 82q180 250 477 250q199 0 312.5 -97t113.5 -272q0 -238 -229 -327q283 -109 283 -393 q0 -190 -137.5 -310t-366.5 -120q-188 0 -342 102q-114 75 -182 188z" />
<glyph unicode="4" horiz-adv-x="1251" d="M78 348v127l610 1004h217v-1004h254v-127h-254v-348h-147v348h-680zM233 475h525v848h-6z" />
<glyph unicode="5" horiz-adv-x="1251" d="M147 262l134 70q121 -225 342 -226q156 0 249 93q102 102 103 301q0 166 -90 269t-242 103q-215 0 -311 -223l-129 29l65 801h758v-127h-635l-37 -473q131 121 303 120q197 0 330 -125q143 -137 143 -374q0 -201 -114 -344q-139 -176 -398 -176q-289 -1 -471 282z" />
<glyph unicode="6" horiz-adv-x="1251" d="M123 664q0 365 153 593q164 242 453 242q229 0 320 -86l-64 -125q-106 84 -252 84q-190 0 -313 -149q-139 -168 -141 -469q168 176 405 176q180 0 305 -117q139 -133 139 -358t-145 -357q-135 -119 -332 -118q-528 0 -528 684zM283 487q6 -162 102 -268q98 -113 254 -113 q154 0 244 95.5t90 249.5q0 164 -96 262q-88 90 -213 90q-137 0 -255 -95.5t-126 -220.5z" />
<glyph unicode="7" horiz-adv-x="1251" d="M152 1352v127h938v-90l-625 -1389h-172l608 1352h-749z" />
<glyph unicode="8" horiz-adv-x="1251" d="M86 385q0 252 324 401v5q-262 98 -263 339q0 176 138 275q129 94 340 94t340 -94q137 -98 137 -275q0 -242 -262 -339v-5q141 -51 227 -149q96 -109 96 -252q0 -178 -133 -287q-145 -119 -405 -118q-260 0 -406 118q-133 109 -133 287zM242 385q0 -111 90 -188 q106 -90 293 -91q186 0 293 91q90 78 90 188q0 119 -117 203q-92 66 -293 133q-172 -74 -246 -133q-110 -88 -110 -203zM303 1139q0 -106 115 -189q84 -61 207 -96q135 33 223 104q98 80 98 181q0 115 -100 178q-88 55 -221 55t-222 -55q-100 -63 -100 -178z" />
<glyph unicode="9" horiz-adv-x="1251" d="M123 1024q0 225 147 356q133 119 330 119q528 0 528 -684q0 -365 -153 -592q-164 -244 -453 -243q-229 0 -319 86l63 124q106 -84 252 -84q184 0 307 156q135 168 148 463q-168 -176 -406 -176q-180 0 -305 119q-139 131 -139 356zM279 1028q0 -164 96 -262 q88 -90 213 -90q131 0 235 80q96 74 142 194q-4 195 -98.5 308.5t-254.5 113.5q-154 0 -243.5 -95t-89.5 -249z" />
<glyph unicode=":" horiz-adv-x="624" d="M211 0v225h201v-225h-201zM211 594v225h201v-225h-201z" />
<glyph unicode=";" horiz-adv-x="624" d="M197 -303l96 303h-82v225h201v-225l-129 -303h-86zM211 594v225h201v-225h-201z" />
<glyph unicode="&#x3c;" horiz-adv-x="1228" d="M94 475v115l1041 475v-127l-893 -406l893 -405v-127z" />
<glyph unicode="=" horiz-adv-x="1228" d="M82 260v127h1065v-127h-1065zM82 678v127h1065v-127h-1065z" />
<glyph unicode="&#x3e;" horiz-adv-x="1228" d="M94 0v127l893 405l-893 406v127l1041 -473v-119z" />
<glyph unicode="?" horiz-adv-x="909" d="M109 1274q102 225 333 225q137 0 232 -80q100 -88 100 -231q0 -113 -84 -225q-78 -92 -155 -183q-84 -106 -84 -198v-115h-140v113q0 131 80 243q74 86 148 174q80 100 79 199q0 70 -38 119q-47 57 -134 57q-131 0 -215 -158zM276 0v225h201v-225h-201z" />
<glyph unicode="@" horiz-adv-x="1638" d="M90 733q0 322 223.5 544t536.5 222q291 0 494.5 -178t203.5 -451q0 -272 -166 -442q-141 -141 -305 -141q-59 0 -99 36.5t-44 90.5l-4 -2q-113 -125 -244 -125q-129 0 -213 94t-84 229q0 215 127 381q135 178 328 178q174 0 246 -157l40 123h138l-164 -564 q-20 -70 -21 -100q0 -51 45 -51q113 0 203 139q86 133 86 289q0 240 -168 385q-160 135 -399 135q-266 0 -439 -183.5t-173 -451.5t177 -445t435 -177q330 0 506 221h155q-96 -170 -278 -264q-174 -88 -383 -88q-317 0 -538.5 219t-221.5 534zM553 631q0 -201 139 -201 q133 0 238 141q94 131 94 267q0 92 -47 143q-41 45 -100 45q-137 0 -236 -135q-88 -123 -88 -260z" />
<glyph unicode="A" horiz-adv-x="1251" d="M49 0l455 1479h244l454 -1479h-172l-139 463h-531l-139 -463h-172zM401 602h449l-213 762h-23z" />
<glyph unicode="B" horiz-adv-x="1366" d="M221 0v1479h545q188 0 301 -104.5t113 -260.5q0 -254 -250 -340l2 -4q125 -31 205 -133t80 -240q0 -397 -537 -397h-459zM385 139h307q360 0 361 267q0 139 -104.5 219t-280.5 80h-283v-566zM385 844h287q172 0 264 80q80 68 80 172q0 244 -279 243h-352v-495z" />
<glyph unicode="C" horiz-adv-x="1251" d="M86 739q0 360 148.5 560t416.5 200q395 0 500 -430l-152 -45q-43 168 -120 246q-90 90 -248 90q-168 0 -271 -152q-111 -164 -110 -469q0 -311 115 -471q106 -150 299 -149q272 0 360 352l147 -29q-111 -463 -520 -462q-258 0 -407 186q-158 196 -158 573z" />
<glyph unicode="D" horiz-adv-x="1366" d="M205 0v1479h397q307 0 485 -189q182 -195 183 -551q0 -336 -172 -532q-180 -207 -504 -207h-389zM369 139h221q516 0 516 600t-508 600h-229v-1200z" />
<glyph unicode="E" horiz-adv-x="1251" d="M221 0v1479h887v-140h-723v-495h514v-139h-514v-566h764v-139h-928z" />
<glyph unicode="F" horiz-adv-x="1138" d="M205 0v1479h876v-140h-712v-495h528v-139h-528v-705h-164z" />
<glyph unicode="G" horiz-adv-x="1366" d="M98 739q0 375 164 574q152 186 414 186q408 0 532 -434l-155 -31q-102 326 -369 326q-184 0 -293 -133q-129 -158 -129 -488t129 -487q109 -133 293 -133q174 0 268 96q86 88 86 231v125h-333v140h497v-711h-135v135h-4q-113 -156 -387 -155q-262 0 -414 186 q-164 198 -164 573z" />
<glyph unicode="H" horiz-adv-x="1478" d="M221 0v1479h164v-635h709v635h163v-1479h-163v705h-709v-705h-164z" />
<glyph unicode="I" horiz-adv-x="681" d="M258 0v1479h164v-1479h-164z" />
<glyph unicode="J" horiz-adv-x="909" d="M16 170l123 80q82 -131 221 -131q180 0 181 219v1141h164v-1098q0 -401 -340 -401q-202 0 -349 190z" />
<glyph unicode="K" horiz-adv-x="1366" d="M238 0v1479h163v-768h5l612 768h194l-458 -557l514 -922h-187l-440 786l-240 -290v-496h-163z" />
<glyph unicode="L" horiz-adv-x="1138" d="M221 0v1479h164v-1340h700v-139h-864z" />
<glyph unicode="M" horiz-adv-x="1705" d="M221 0v1479h254l377 -1196h4l371 1196h258v-1479h-148v1352h-6l-413 -1352h-127l-416 1352h-6v-1352h-148z" />
<glyph unicode="N" horiz-adv-x="1478" d="M221 0v1479h236l645 -1139h8v1139h147v-1479h-135l-749 1319h-4v-1319h-148z" />
<glyph unicode="O" horiz-adv-x="1366" d="M104 739q0 367 152 563.5t426 196.5t426 -196.5t152 -563.5t-152 -563t-426 -196t-426 196t-152 563zM268 739q0 -621 414 -620q414 0 414 620q0 621 -414 621t-414 -621z" />
<glyph unicode="P" horiz-adv-x="1251" d="M205 0v1479h516q225 0 344 -119q109 -109 109 -295q0 -190 -132 -295q-139 -111 -411 -111h-262v-659h-164zM369 799h278q197 0 283 69q80 63 80 201q0 270 -326 270h-315v-540z" />
<glyph unicode="Q" horiz-adv-x="1366" d="M104 739q0 367 152 563.5t426 196.5t426 -196.5t152 -563.5t-152 -563q72 -135 223 -135v-160q-129 0 -203 49q-59 39 -124 146q-131 -96 -322 -96q-274 0 -426 196t-152 563zM268 739q0 -621 414 -620q143 0 240 82q-70 104 -181 121v157q188 -27 277 -151 q78 150 78 411q0 621 -414 621t-414 -621z" />
<glyph unicode="R" horiz-adv-x="1366" d="M205 0v1479h475q238 0 366 -101.5t128 -287.5q0 -289 -295 -385l313 -705h-178l-299 672h-346v-672h-164zM369 811h297q344 0 344 270q0 258 -346 258h-295v-528z" />
<glyph unicode="S" horiz-adv-x="1251" d="M102 365l150 53q115 -299 387 -299q158 0 242 73.5t84 192.5q0 154 -215 254q-201 82 -402 166q-215 117 -215 313q0 162 124 271.5t321 109.5q371 0 487 -364l-147 -33q-29 115 -115 182q-92 76 -230 76q-276 0 -276 -232q0 -129 213 -221l401 -168q217 -123 217 -325 q0 -184 -106 -297q-131 -137 -391 -137q-217 0 -357 126q-96 87 -172 259z" />
<glyph unicode="T" horiz-adv-x="1138" d="M45 1339v140h1049v-140h-443v-1339h-164v1339h-442z" />
<glyph unicode="U" horiz-adv-x="1478" d="M221 446v1033h164v-1045q0 -135 90 -221q96 -94 264 -94t265 94q90 86 90 221v1045h163v-1033q0 -217 -142 -341.5t-376 -124.5q-233 0 -372 122q-146 127 -146 344z" />
<glyph unicode="V" horiz-adv-x="1138" d="M37 1479h164l364 -1213h4l367 1213h166l-459 -1479h-149z" />
<glyph unicode="W" horiz-adv-x="1705" d="M57 1479h156l274 -1180h5l286 1180h146l295 -1180h4l270 1180h156l-351 -1479h-145l-303 1196h-4l-287 -1196h-145z" />
<glyph unicode="X" horiz-adv-x="1138" d="M29 0l442 772l-414 707h189l317 -543l311 543h189l-404 -707l451 -772h-188l-357 610l-348 -610h-188z" />
<glyph unicode="Y" horiz-adv-x="1138" d="M33 1479h180l356 -678l357 678h180l-455 -856v-623h-164v623z" />
<glyph unicode="Z" horiz-adv-x="1138" d="M92 0v119l742 1220h-674v140h878v-107l-753 -1233h762v-139h-955z" />
<glyph unicode="[" horiz-adv-x="681" d="M156 -152v1631h417v-86h-270v-1459h270v-86h-417z" />
<glyph unicode="\" horiz-adv-x="569" d="M-16 1499h125l477 -1519h-123z" />
<glyph unicode="]" horiz-adv-x="681" d="M109 -66h270v1459h-270v86h417v-1631h-417v86z" />
<glyph unicode="^" horiz-adv-x="1228" d="M96 571l459 908h119l459 -908h-129l-392 768l-385 -768h-131z" />
<glyph unicode="_" d="M0 -154h1024v-102h-1024v102z" />
<glyph unicode="`" horiz-adv-x="569" d="M12 1479h224l182 -291h-137z" />
<glyph unicode="a" d="M86 272q0 174 147.5 272.5t503.5 162.5v57q0 195 -219 194q-207 0 -272 -165l-129 67q125 225 399 225q154 0 252 -71q117 -86 117 -248v-537q0 -135 24 -229h-151l-17 147q-152 -168 -352 -167q-129 0 -213 73q-90 80 -90 219zM233 270q0 -70 55.5 -117t121.5 -47 q78 0 170 50.5t157 126.5v292q-504 -88 -504 -305z" />
<glyph unicode="b" horiz-adv-x="1138" d="M172 0q8 51 8 233v1246h148v-516l8 4q143 119 280 118q164 0 283 -120q145 -150 145 -433q0 -289 -147 -436q-117 -117 -289 -116q-164 0 -307 133l-27 -113h-102zM328 250q145 -143 268 -144q139 0 220 109t81 309q0 434 -301 434q-135 0 -268 -147v-561z" />
<glyph unicode="c" d="M82 532q0 256 117.5 404.5t318.5 148.5q272 0 389 -288l-137 -49q-68 211 -252 210q-137 0 -213 -111.5t-76 -314.5t76 -314.5t213 -111.5q102 0 167 42t126 155l119 -53q-86 -145 -166 -203q-96 -68 -246 -67q-201 0 -318.5 148t-117.5 404z" />
<glyph unicode="d" horiz-adv-x="1138" d="M94 532q0 283 148 433q117 121 280 120q137 0 281 -118l8 -4v516h147v-1246q0 -182 9 -233h-136l-20 104q-90 -125 -281 -124q-172 0 -288 116q-148 147 -148 436zM242 524q0 -201 80.5 -309.5t220.5 -108.5q123 0 268 144v561q-133 147 -268 147q-301 0 -301 -434z" />
<glyph unicode="e" d="M82 532q0 256 117.5 404.5t316.5 148.5q178 0 287 -114q119 -127 119 -369v-98h-693q0 -174 91.5 -286t224.5 -112q195 0 295 181l114 -60q-66 -115 -139 -170q-109 -78 -270 -77q-195 0 -320 131q-143 147 -143 421zM233 631h541q0 150 -67.5 238.5t-186.5 88.5 q-131 0 -204 -87.5t-83 -239.5z" />
<glyph unicode="f" horiz-adv-x="681" d="M55 938v127h181v121q0 180 65 252q57 61 195 61q25 0 131 -10v-131q-108 13 -108 14h1q-76 0 -106.5 -31.5t-30.5 -119.5v-156h231v-127h-231v-938h-147v938h-181z" />
<glyph unicode="g" d="M41 -135q0 76 47 127q39 41 133 90q-59 18 -96 60t-37 91q0 61 41 107q27 29 102 76q-145 111 -145 297q0 166 114.5 269t288.5 103q160 0 265 -73q117 82 229 94v-148q-106 0 -164 -28q74 -88 74 -217q0 -158 -113.5 -265.5t-275.5 -107.5q-88 0 -189 29 q-84 -25 -84 -99q0 -78 88 -77q371 0 523 -72q143 -68 143 -227q0 -125 -119 -203q-129 -84 -366 -84q-459 0 -459 258zM180 -133q0 -68 62 -96q78 -37 282 -37q139 0 230.5 39t91.5 114q0 158 -369 158q-158 0 -235 -61q-62 -47 -62 -117zM225 713q0 -106 77 -176t198 -70 t190 72q63 66 64 166q0 254 -271 253q-123 0 -190.5 -68t-67.5 -177z" />
<glyph unicode="h" horiz-adv-x="1138" d="M182 0v1479h148v-557h4q145 164 315 163q131 0 213 -69q94 -82 94 -242v-774h-147v770q0 188 -174 188q-154 0 -305 -161v-797h-148z" />
<glyph unicode="i" horiz-adv-x="569" d="M211 0v1065h147v-1065h-147zM211 1323v176h147v-176h-147z" />
<glyph unicode="j" horiz-adv-x="569" d="M45 -248q41 -18 78 -18q117 0 117 106v1225h147v-1235q0 -98 -59.5 -160.5t-159.5 -62.5q-80 0 -123 24v121zM240 1323v176h147v-176h-147z" />
<glyph unicode="k" d="M172 0v1479h147v-953h5l430 539h178l-314 -393l355 -672h-174l-283 545l-197 -226v-319h-147z" />
<glyph unicode="l" horiz-adv-x="569" d="M211 0v1479h147v-1479h-147z" />
<glyph unicode="m" horiz-adv-x="1705" d="M168 0v1065h147v-141l9 8q154 154 309 153q207 0 272 -167q158 168 338 167q293 0 293 -323v-762h-147v762q0 197 -166 196q-86 0 -168 -53q-45 -29 -129 -110v-795h-148v762q0 197 -166 196q-86 0 -168 -53q-45 -29 -129 -110v-795h-147z" />
<glyph unicode="n" horiz-adv-x="1138" d="M182 0v1065h148v-143h4q145 164 315 163q131 0 213 -69q94 -82 94 -242v-774h-147v770q0 188 -174 188q-154 0 -305 -161v-797h-148z" />
<glyph unicode="o" d="M76 532q0 242 108 392q119 162 328 161q209 0 328 -161q109 -150 108 -392q0 -242 -108 -391q-119 -162 -328 -161q-209 0 -328 161q-108 149 -108 391zM223 532q0 -203 78 -314.5t211 -111.5t211 112t78 314q0 203 -78 314.5t-211 111.5t-211 -111.5t-78 -314.5z" />
<glyph unicode="p" horiz-adv-x="1138" d="M180 -393v1458h148v-125h4q43 61 121.5 103t154.5 42q172 0 289 -116q147 -147 147 -437q0 -283 -145 -432q-119 -121 -283 -120q-137 0 -280 118l-8 4v-495h-148zM328 254q133 -147 268 -148q301 0 301 435q0 201 -81 309t-220 108q-123 0 -268 -143v-561z" />
<glyph unicode="q" horiz-adv-x="1138" d="M94 532q0 289 148 437q117 117 288 116q180 0 283 -133l27 113h118v-1458h-147v495l-8 -4q-143 -119 -281 -118q-164 0 -280 120q-148 149 -148 432zM242 541q0 -434 301 -435q135 0 268 148v561q-145 143 -268 143q-139 0 -220 -108t-81 -309z" />
<glyph unicode="r" horiz-adv-x="681" d="M143 0v1065h148v-211h4q66 117 137 168q84 59 209 59v-147q-133 -2 -217 -92q-78 -80 -133 -252v-590h-148z" />
<glyph unicode="s" horiz-adv-x="909" d="M49 182l117 88q115 -164 305 -164q113 0 174 56q55 47 55 121q0 109 -163 168l-299 102q-156 77 -156 234v12q4 137 100 213q94 74 244 73h8q104 -2 207.5 -54t157.5 -132l-103 -90q-123 150 -274 149q-193 0 -193 -157q0 -92 160 -148q281 -94 299 -104 q160 -88 160 -258q0 -147 -115 -234q-102 -78 -258 -77q-274 -1 -426 202z" />
<glyph unicode="t" horiz-adv-x="681" d="M37 938v127h174v350h147v-350h246v-127h-246v-758q0 -74 121 -74q66 0 131 11v-121q-53 -16 -172 -16q-123 0 -175 38.5t-52 137.5v782h-174z" />
<glyph unicode="u" horiz-adv-x="1138" d="M182 291v774h148v-770q0 -188 174 -189q154 0 305 162v797h147v-1065h-147v143h-4q-145 -164 -316 -163q-131 0 -213 69q-94 82 -94 242z" />
<glyph unicode="v" horiz-adv-x="909" d="M33 1065h149l271 -881h4l270 881h150l-320 -1065h-197z" />
<glyph unicode="w" horiz-adv-x="1366" d="M33 1065h149l215 -819h4l209 819h150l213 -823h4l207 823h149l-284 -1065h-150l-213 823h-4l-211 -823h-149z" />
<glyph unicode="x" horiz-adv-x="909" d="M25 0l335 559l-311 506h166l234 -379l223 379h166l-299 -506l346 -559h-170l-266 436l-259 -436h-165z" />
<glyph unicode="y" horiz-adv-x="909" d="M25 1065h155l287 -813h4l250 813h156l-375 -1159q-96 -299 -359 -299q-20 0 -106 12v121q61 -6 80 -6q223 0 278 254z" />
<glyph unicode="z" horiz-adv-x="909" d="M61 0v106l582 832h-524v127h725v-107l-582 -831h586v-127h-787z" />
<glyph unicode="{" horiz-adv-x="681" d="M98 621v86q127 0 127 159v408q0 225 191 225h127v-86h-78q-92 0 -92 -115v-471q0 -137 -152 -161v-4q152 -25 152 -162v-471q0 -115 92 -115h78v-86h-127q-190 0 -191 225v408q0 160 -127 160z" />
<glyph unicode="|" horiz-adv-x="454" d="M164 -20v1519h127v-1519h-127z" />
<glyph unicode="}" horiz-adv-x="681" d="M139 -86h78q92 0 92 115v471q0 137 152 162v4q-152 25 -152 161v471q0 115 -92 115h-78v86h127q190 0 191 -225v-408q0 -160 127 -159v-86q-127 0 -127 -160v-408q0 -225 -191 -225h-127v86z" />
<glyph unicode="~" horiz-adv-x="1228" d="M135 483q100 184 262 185q82 0 233.5 -70t203.5 -70q82 0 180 146l80 -90q-68 -90 -109 -125q-70 -57 -154 -58q-78 0 -214 70t-230 70q-106 0 -172 -150z" />
<glyph unicode="&#xa1;" horiz-adv-x="681" d="M233 -414l43 1012h132l43 -1012h-218zM242 840v225h200v-225h-200z" />
<glyph unicode="&#xa2;" horiz-adv-x="1251" d="M184 532q0 256 118 404.5t319 148.5q78 0 133 -18l65 182h117l-84 -231q96 -70 158 -221l-138 -49q-25 82 -71 131l-273 -756q39 -16 93 -17q102 0 166.5 42t125.5 155l119 -53q-86 -145 -166 -203q-96 -68 -245 -67q-80 0 -138 22l-84 -229h-116l100 278 q-199 141 -199 481zM332 532q0 -238 102 -344l275 754q-39 16 -88 16q-137 0 -213 -111.5t-76 -314.5z" />
<glyph unicode="&#xa3;" horiz-adv-x="1251" d="M53 672v127h201q-25 156 -25 241q0 211 119 335t332 124q373 0 463 -381l-139 -24q-90 279 -316 278q-164 0 -239 -96q-63 -76 -64 -203q0 -94 21 -274h311v-127h-295q12 -51 12 -140q0 -162 -57 -276q96 -49 193.5 -99.5t162.5 -50.5q260 0 316 263l131 -25 q-61 -365 -410 -364q-133 0 -260 53q-39 14 -209 106q-98 -139 -246 -159v159q92 16 160 109q72 100 72 237q0 109 -15 187h-219z" />
<glyph unicode="&#xa4;" horiz-adv-x="1251" d="M115 311l112 113q-111 137 -110 315q0 178 110 316l-112 112l86 86l114 -114q131 109 310 108q178 0 309 -108l115 114l86 -86l-113 -112q111 -137 111 -316q0 -178 -111 -315l113 -113l-86 -86l-115 115q-131 -109 -309 -109t-310 109l-114 -115zM244 739 q0 -176 108.5 -282.5t272.5 -106.5t272.5 106.5t108.5 282.5q0 174 -111 285q-106 104 -270 104t-271 -104q-110 -111 -110 -285z" />
<glyph unicode="&#xa5;" horiz-adv-x="1251" d="M100 1479h148l377 -711l376 711h148l-301 -566h209v-127h-275l-88 -163v-17h363v-127h-363v-479h-139v479h-362v127h362v17l-86 163h-276v127h208z" />
<glyph unicode="&#xa6;" horiz-adv-x="454" d="M164 -20v573h127v-573h-127zM164 926v573h127v-573h-127z" />
<glyph unicode="&#xa7;" d="M119 815q-2 205 246 217q-84 109 -86 111q-33 55 -33 127q0 94 73.5 161.5t188.5 67.5q90 0 160 -39q63 -39 139 -131l-98 -55q-51 59 -82 80q-49 35 -111 35q-59 0 -95 -35t-36 -84q0 -45 38 -93.5t209 -219.5t220 -242q53 -78 53 -166q0 -190 -223 -221 q111 -127 111 -254q0 -98 -70 -168q-78 -78 -211 -78q-213 0 -313 180l104 66q88 -135 209 -135q61 0 101 36.5t40 94.5q0 76 -137 229q-129 135 -258 272q-137 158 -139 244zM258 821q0 -47 41 -102q25 -31 127 -139q86 -92 131 -123t90 -31q49 0 84 31.5t35 83.5 q0 82 -172 254q-90 90 -133 116q-35 23 -80 23q-51 0 -87 -33t-36 -80z" />
<glyph unicode="&#xa8;" horiz-adv-x="569" d="M33 1208v193h180v-193h-180zM356 1208v193h181v-193h-181z" />
<glyph unicode="&#xa9;" horiz-adv-x="1638" d="M49 741q0 324 227.5 541t544.5 217q315 0 539 -215q229 -221 229 -543q0 -326 -226 -543.5t-542 -217.5q-317 0 -544.5 217.5t-227.5 543.5zM197 741q0 -276 179 -457.5t445 -181.5q264 0 442.5 181.5t178.5 457.5q0 270 -179.5 452.5t-441.5 182.5q-264 0 -444 -182.5 t-180 -452.5zM399 743q0 203 119 333t322 130q150 0 252 -80q106 -86 129 -233h-138q-16 88 -81.5 139t-159.5 51q-141 0 -218 -93t-77 -245q0 -147 80 -243q84 -104 219 -105q96 0 160.5 55.5t76.5 145.5h140q-31 -147 -133.5 -235.5t-243.5 -88.5q-201 0 -324 133 t-123 336z" />
<glyph unicode="&#xaa;" horiz-adv-x="614" d="M29 1012q0 104 96 166.5t317 101.5v27q0 98 -131 98q-137 0 -176 -90l-84 49q82 135 260 135q100 0 164 -43q78 -51 78 -149v-322q0 -84 16 -137h-108l-12 72q-121 -84 -220 -84q-86 0 -143 46t-57 130zM139 1010q0 -80 99 -80q109 0 204 88v168q-303 -57 -303 -176z" />
<glyph unicode="&#xab;" d="M164 532l266 324h143l-264 -324l264 -323h-139zM451 532l266 324h143l-264 -324l264 -323h-139z" />
<glyph unicode="&#xac;" horiz-adv-x="1228" d="M82 678v127h1065v-545h-127v418h-938z" />
<glyph unicode="&#xad;" horiz-adv-x="1228" d="M82 469v127h1065v-127h-1065z" />
<glyph unicode="&#x2212;" horiz-adv-x="1228" d="M82 469v127h1065v-127h-1065z" />
<glyph unicode="&#xae;" horiz-adv-x="1638" d="M49 741q0 324 227.5 541t544.5 217q315 0 539 -215q229 -221 229 -543q0 -326 -226 -543.5t-542 -217.5q-317 0 -544.5 217.5t-227.5 543.5zM197 741q0 -276 179 -457.5t445 -181.5q264 0 442.5 181.5t178.5 457.5q0 270 -179.5 452.5t-441.5 182.5q-264 0 -444 -182.5 t-180 -452.5zM524 301v877h336q311 0 311 -250q0 -213 -229 -242l250 -385h-148l-233 381h-152v-381h-135zM659 793h160q119 0 168 34.5t49 108.5q0 131 -194 131h-183v-274z" />
<glyph unicode="&#xaf;" horiz-adv-x="569" d="M-35 1253v123h639v-123h-639z" />
<glyph unicode="&#x2c9;" horiz-adv-x="569" d="M-35 1253v123h639v-123h-639z" />
<glyph unicode="&#xb0;" horiz-adv-x="819" d="M115 1204q0 123 86 209t209 86t209 -86t86 -209t-86.5 -209t-208.5 -86q-123 0 -209 86t-86 209zM213 1204q0 -86 57.5 -145.5t139.5 -59.5t139 59.5t57 145.5t-57 145.5t-139 59.5t-139.5 -59.5t-57.5 -145.5z" />
<glyph unicode="&#xb1;" horiz-adv-x="1228" d="M82 0v127h1065v-127h-1065zM82 571v127h469v367h127v-367h469v-127h-469v-366h-127v366h-469z" />
<glyph unicode="&#xb2;" horiz-adv-x="749" d="M57 598v111q68 125 207 227q109 74 215 145q98 78 99 168q0 66 -48.5 107t-134.5 41q-186 0 -241 -180l-95 32q74 250 342 250q131 0 209 -63.5t78 -173.5q0 -125 -108 -224q-33 -31 -222 -157q-143 -94 -190 -181h524v-102h-635z" />
<glyph unicode="&#xb3;" horiz-adv-x="749" d="M25 758l81 65q102 -135 261 -135q215 0 215 152q0 182 -263 182h-92v102h84q238 0 238 154q0 47 -47 83t-121 36q-84 0 -130 -23.5t-93 -81.5l-86 58q117 150 309 149q131 0 204.5 -58.5t73.5 -162.5q0 -150 -133 -195v-4q84 -27 129 -100q37 -63 37 -137 q0 -115 -88 -185.5t-237 -70.5q-227 0 -342 172z" />
<glyph unicode="&#xb4;" horiz-adv-x="569" d="M152 1188l182 291h223l-268 -291h-137z" />
<glyph unicode="&#xb5;" horiz-adv-x="1138" d="M182 -393v1458h148v-770q0 -188 174 -189q154 0 305 162v797h147v-1065h-147v143h-4q-145 -164 -316 -163q-88 0 -159 32v-405h-148z" />
<glyph unicode="&#x3bc;" horiz-adv-x="1138" d="M182 -393v1458h148v-770q0 -188 174 -189q154 0 305 162v797h147v-1065h-147v143h-4q-145 -164 -316 -163q-88 0 -159 32v-405h-148z" />
<glyph unicode="&#xb6;" d="M20 1071q0 199 121 303.5t340 104.5h568v-103h-146v-1548h-123v1548h-209v-1548h-122v850q-184 0 -306.5 114.5t-122.5 278.5z" />
<glyph unicode="&#xb7;" horiz-adv-x="624" d="M184 530q0 55 36 92t91 37q53 0 90 -37.5t37 -91.5q0 -51 -36.5 -87.5t-90.5 -36.5q-55 0 -91 35.5t-36 88.5z" />
<glyph unicode="&#x2219;" horiz-adv-x="624" d="M184 530q0 55 36 92t91 37q53 0 90 -37.5t37 -91.5q0 -51 -36.5 -87.5t-90.5 -36.5q-55 0 -91 35.5t-36 88.5z" />
<glyph unicode="&#xb8;" horiz-adv-x="569" d="M59 -416l35 90q61 -39 135 -39q115 0 115 89q0 78 -84 77q-53 0 -94 -16l-35 39l129 176h98l-96 -119l4 -4q31 10 62 10q84 0 129 -50t43 -122q-4 -174 -248 -174q-99 0 -193 43z" />
<glyph unicode="&#xb9;" horiz-adv-x="749" d="M156 1370v68q72 18 182 61h111v-799h161v-102h-436v102h156v697z" />
<glyph unicode="&#xba;" horiz-adv-x="614" d="M25 1167q0 154 76.5 243t205.5 89q131 0 207 -88t76 -244t-76 -243.5t-207 -87.5q-129 0 -205.5 88.5t-76.5 242.5zM143 1171q0 -238 164 -237q164 0 164 233t-164 234q-76 0 -120 -62t-44 -168z" />
<glyph unicode="&#xbb;" d="M164 209l264 323l-264 324h143l266 -324l-270 -323h-139zM451 209l264 323l-264 324h143l266 -324l-270 -323h-139z" />
<glyph unicode="&#xbc;" horiz-adv-x="1875" d="M180 1370v68q72 18 182 61h111v-799h162v-102h-436v102h155v697zM449 -20l899 1519h127l-906 -1519h-120zM1075 209v92l379 588h158v-578h166v-102h-166v-209h-111v209h-426zM1200 311h301v459h-4z" />
<glyph unicode="&#xbd;" horiz-adv-x="1875" d="M180 1370v68q72 18 182 61h111v-799h162v-102h-436v102h155v697zM408 -20l899 1519h127l-906 -1519h-120zM1126 0v111q68 125 207 227q109 74 215 145q98 78 99 168q0 66 -48.5 107t-134.5 41q-186 0 -241 -181l-95 33q74 250 342 250q131 0 209 -63.5t78 -173.5 q0 -125 -108 -224q-33 -31 -222 -157q-143 -94 -190 -181h524v-102h-635z" />
<glyph unicode="&#xbe;" horiz-adv-x="1875" d="M98 758l82 65q102 -135 260 -135q215 0 215 152q0 182 -262 182h-92v102h84q238 0 238 154q0 47 -47.5 83t-120.5 36q-84 0 -130 -23.5t-94 -81.5l-86 58q117 150 310 149q131 0 204.5 -58.5t73.5 -162.5q0 -150 -133 -195v-4q84 -27 129 -100q37 -63 37 -137 q0 -115 -88 -185.5t-238 -70.5q-227 0 -342 172zM481 -20l899 1519h127l-905 -1519h-121zM1075 209v92l379 588h158v-578h166v-102h-166v-209h-111v209h-426zM1200 311h301v459h-4z" />
<glyph unicode="&#xbf;" horiz-adv-x="909" d="M135 -123q0 113 84 225q78 92 156 183q84 106 84 198v115h139v-113q0 -131 -80 -243q-74 -86 -147 -174q-80 -100 -80 -199q0 -70 41 -119q45 -57 131 -57q131 0 215 157l123 -59q-102 -225 -334 -225q-137 0 -229 80q-103 88 -103 231zM432 840v225h201v-225h-201z" />
<glyph unicode="&#xc0;" horiz-adv-x="1251" d="M49 0l455 1479h244l454 -1479h-172l-139 463h-531l-139 -463h-172zM401 602h449l-213 762h-23zM354 1848h224l182 -291h-137z" />
<glyph unicode="&#xc1;" horiz-adv-x="1251" d="M49 0l455 1479h244l454 -1479h-172l-139 463h-531l-139 -463h-172zM401 602h449l-213 762h-23zM494 1557l182 291h223l-268 -291h-137z" />
<glyph unicode="&#xc2;" horiz-adv-x="1251" d="M49 0l455 1479h244l454 -1479h-172l-139 463h-531l-139 -463h-172zM401 602h449l-213 762h-23zM328 1557l200 291h193l205 -291h-164l-137 192l-133 -192h-164z" />
<glyph unicode="&#xc3;" horiz-adv-x="1251" d="M49 0l455 1479h244l454 -1479h-172l-139 463h-531l-139 -463h-172zM401 602h449l-213 762h-23zM276 1575q10 98 66.5 161t153.5 63q59 0 150 -38t132 -38q82 0 96 90h103q-8 -82 -62 -148q-59 -72 -137 -71q-55 0 -159.5 39t-153.5 39q-31 0 -57.5 -31t-28.5 -66h-103z " />
<glyph unicode="&#xc4;" horiz-adv-x="1251" d="M49 0l455 1479h244l454 -1479h-172l-139 463h-531l-139 -463h-172zM401 602h449l-213 762h-23zM375 1577v193h180v-193h-180zM698 1577v193h181v-193h-181z" />
<glyph unicode="&#xc5;" horiz-adv-x="1251" d="M49 0l455 1479h244l454 -1479h-172l-139 463h-531l-139 -463h-172zM401 602h449l-213 762h-23zM422 1762q0 84 60.5 144t144.5 60t144 -60t60 -144t-60 -144.5t-144 -60.5t-144.5 60.5t-60.5 144.5zM512 1762q0 -47 34 -81t81 -34t80.5 34t33.5 81t-33.5 80.5t-80.5 33.5 t-81 -33.5t-34 -80.5z" />
<glyph unicode="&#xc6;" horiz-adv-x="2048" d="M33 0l833 1479h1039v-140h-723v-495h514v-139h-514v-566h764v-139h-928v463h-545l-254 -463h-186zM553 602h465v762h-45z" />
<glyph unicode="&#xc7;" horiz-adv-x="1251" d="M86 739q0 360 148.5 560t416.5 200q395 0 500 -430l-152 -45q-43 168 -120 246q-90 90 -248 90q-168 0 -271 -152q-111 -164 -110 -469q0 -311 115 -471q106 -150 299 -149q272 0 360 352l147 -29q-111 -463 -520 -462q-258 0 -407 186q-158 196 -158 573zM419 -416 l35 90q61 -39 135 -39q115 0 115 89q0 78 -84 77q-53 0 -94 -16l-35 39l129 176h98l-96 -119l4 -4q31 10 62 10q84 0 129 -50t43 -122q-4 -174 -248 -174q-99 0 -193 43z" />
<glyph unicode="&#xc8;" horiz-adv-x="1251" d="M221 0v1479h887v-140h-723v-495h514v-139h-514v-566h764v-139h-928zM411 1848h224l182 -291h-137z" />
<glyph unicode="&#xc9;" horiz-adv-x="1251" d="M221 0v1479h887v-140h-723v-495h514v-139h-514v-566h764v-139h-928zM551 1557l182 291h223l-268 -291h-137z" />
<glyph unicode="&#xca;" horiz-adv-x="1251" d="M221 0v1479h887v-140h-723v-495h514v-139h-514v-566h764v-139h-928zM385 1557l200 291h193l205 -291h-164l-137 192l-133 -192h-164z" />
<glyph unicode="&#xcb;" horiz-adv-x="1251" d="M221 0v1479h887v-140h-723v-495h514v-139h-514v-566h764v-139h-928zM432 1577v193h180v-193h-180zM755 1577v193h181v-193h-181z" />
<glyph unicode="&#xcc;" horiz-adv-x="681" d="M258 0v1479h164v-1479h-164zM69 1848h224l182 -291h-137z" />
<glyph unicode="&#xcd;" horiz-adv-x="681" d="M258 0v1479h164v-1479h-164zM209 1557l182 291h223l-268 -291h-137z" />
<glyph unicode="&#xce;" horiz-adv-x="681" d="M258 0v1479h164v-1479h-164zM43 1557l200 291h193l205 -291h-164l-137 192l-133 -192h-164z" />
<glyph unicode="&#xcf;" horiz-adv-x="681" d="M258 0v1479h164v-1479h-164zM90 1577v193h180v-193h-180zM413 1577v193h181v-193h-181z" />
<glyph unicode="&#xd0;" horiz-adv-x="1366" d="M66 705v139h139v635h397q307 0 485 -189q182 -195 183 -551q0 -336 -172 -532q-180 -207 -504 -207h-389v705h-139zM369 139h221q516 0 516 600t-508 600h-229v-495h385v-139h-385v-566z" />
<glyph unicode="&#xd1;" horiz-adv-x="1478" d="M221 0v1479h236l645 -1139h8v1139h147v-1479h-135l-749 1319h-4v-1319h-148zM389 1575q10 98 66.5 161t153.5 63q59 0 150 -38t132 -38q82 0 96 90h103q-8 -82 -62 -148q-59 -72 -137 -71q-55 0 -159.5 39t-153.5 39q-31 0 -57.5 -31t-28.5 -66h-103z" />
<glyph unicode="&#xd2;" horiz-adv-x="1366" d="M104 739q0 367 152 563.5t426 196.5t426 -196.5t152 -563.5t-152 -563t-426 -196t-426 196t-152 563zM268 739q0 -621 414 -620q414 0 414 620q0 621 -414 621t-414 -621zM411 1848h224l182 -291h-137z" />
<glyph unicode="&#xd3;" horiz-adv-x="1366" d="M104 739q0 367 152 563.5t426 196.5t426 -196.5t152 -563.5t-152 -563t-426 -196t-426 196t-152 563zM268 739q0 -621 414 -620q414 0 414 620q0 621 -414 621t-414 -621zM551 1557l182 291h223l-268 -291h-137z" />
<glyph unicode="&#xd4;" horiz-adv-x="1366" d="M104 739q0 367 152 563.5t426 196.5t426 -196.5t152 -563.5t-152 -563t-426 -196t-426 196t-152 563zM268 739q0 -621 414 -620q414 0 414 620q0 621 -414 621t-414 -621zM385 1557l200 291h193l205 -291h-164l-137 192l-133 -192h-164z" />
<glyph unicode="&#xd5;" horiz-adv-x="1366" d="M104 739q0 367 152 563.5t426 196.5t426 -196.5t152 -563.5t-152 -563t-426 -196t-426 196t-152 563zM268 739q0 -621 414 -620q414 0 414 620q0 621 -414 621t-414 -621zM333 1575q10 98 66.5 161t153.5 63q59 0 150 -38t132 -38q82 0 96 90h103q-8 -82 -62 -148 q-59 -72 -137 -71q-55 0 -159.5 39t-153.5 39q-31 0 -57.5 -31t-28.5 -66h-103z" />
<glyph unicode="&#xd6;" horiz-adv-x="1366" d="M104 739q0 367 152 563.5t426 196.5t426 -196.5t152 -563.5t-152 -563t-426 -196t-426 196t-152 563zM268 739q0 -621 414 -620q414 0 414 620q0 621 -414 621t-414 -621zM432 1577v193h180v-193h-180zM755 1577v193h181v-193h-181z" />
<glyph unicode="&#xd7;" horiz-adv-x="1228" d="M82 90l442 442l-442 443l90 90l442 -447l443 447l90 -90l-442 -443l442 -442l-90 -90l-443 442l-442 -442z" />
<glyph unicode="&#xd8;" horiz-adv-x="1366" d="M66 -131l192 305q-154 197 -154 565q0 367 152 563.5t426 196.5q203 0 336 -106l115 184h143l-170 -270q154 -199 154 -568q0 -367 -152 -563t-426 -196q-201 0 -340 110l-139 -221h-137zM268 739q0 -264 82 -415l588 940q-100 96 -256 96q-414 0 -414 -621zM424 219 q94 -100 258 -100q414 0 414 620q0 266 -82 420z" />
<glyph unicode="&#xd9;" horiz-adv-x="1478" d="M221 446v1033h164v-1045q0 -135 90 -221q96 -94 264 -94t265 94q90 86 90 221v1045h163v-1033q0 -217 -142 -341.5t-376 -124.5q-233 0 -372 122q-146 127 -146 344zM467 1848h224l182 -291h-137z" />
<glyph unicode="&#xda;" horiz-adv-x="1478" d="M221 446v1033h164v-1045q0 -135 90 -221q96 -94 264 -94t265 94q90 86 90 221v1045h163v-1033q0 -217 -142 -341.5t-376 -124.5q-233 0 -372 122q-146 127 -146 344zM607 1557l182 291h223l-268 -291h-137z" />
<glyph unicode="&#xdb;" horiz-adv-x="1478" d="M221 446v1033h164v-1045q0 -135 90 -221q96 -94 264 -94t265 94q90 86 90 221v1045h163v-1033q0 -217 -142 -341.5t-376 -124.5q-233 0 -372 122q-146 127 -146 344zM441 1557l200 291h193l205 -291h-164l-137 192l-133 -192h-164z" />
<glyph unicode="&#xdc;" horiz-adv-x="1478" d="M221 446v1033h164v-1045q0 -135 90 -221q96 -94 264 -94t265 94q90 86 90 221v1045h163v-1033q0 -217 -142 -341.5t-376 -124.5q-233 0 -372 122q-146 127 -146 344zM488 1577v193h180v-193h-180zM811 1577v193h181v-193h-181z" />
<glyph unicode="&#xdd;" horiz-adv-x="1138" d="M33 1479h180l356 -678l357 678h180l-455 -856v-623h-164v623zM437 1557l182 291h223l-268 -291h-137z" />
<glyph unicode="&#xde;" horiz-adv-x="1251" d="M205 0v1479h164v-287h352q225 0 344 -119q109 -109 109 -295q0 -190 -132 -295q-139 -111 -411 -110h-262v-373h-164zM369 512h278q197 0 283 70q80 63 80 200q0 270 -326 271h-315v-541z" />
<glyph unicode="&#xdf;" horiz-adv-x="1138" d="M193 0v1135q0 184 118 280q102 84 262 84q178 0 279 -100q94 -96 94 -256q0 -219 -182 -309v-5q272 -80 272 -428q0 -195 -106 -311q-98 -111 -242 -110q-125 0 -215 55l55 121q57 -49 148 -50q106 0 162 84q51 76 51 201q0 362 -371 363v127h60q90 0 155.5 71.5 t65.5 177.5q0 242 -230 242q-229 0 -229 -274v-1098h-147z" />
<glyph unicode="&#xe0;" d="M86 272q0 174 147.5 272.5t503.5 162.5v57q0 195 -219 194q-207 0 -272 -165l-129 67q125 225 399 225q154 0 252 -71q117 -86 117 -248v-537q0 -135 24 -229h-151l-17 147q-152 -168 -352 -167q-129 0 -213 73q-90 80 -90 219zM233 270q0 -70 55.5 -117t121.5 -47 q78 0 170 50.5t157 126.5v292q-504 -88 -504 -305zM229 1479h224l182 -291h-137z" />
<glyph unicode="&#xe1;" d="M86 272q0 174 147.5 272.5t503.5 162.5v57q0 195 -219 194q-207 0 -272 -165l-129 67q125 225 399 225q154 0 252 -71q117 -86 117 -248v-537q0 -135 24 -229h-151l-17 147q-152 -168 -352 -167q-129 0 -213 73q-90 80 -90 219zM233 270q0 -70 55.5 -117t121.5 -47 q78 0 170 50.5t157 126.5v292q-504 -88 -504 -305zM369 1188l182 291h223l-268 -291h-137z" />
<glyph unicode="&#xe2;" d="M86 272q0 174 147.5 272.5t503.5 162.5v57q0 195 -219 194q-207 0 -272 -165l-129 67q125 225 399 225q154 0 252 -71q117 -86 117 -248v-537q0 -135 24 -229h-151l-17 147q-152 -168 -352 -167q-129 0 -213 73q-90 80 -90 219zM233 270q0 -70 55.5 -117t121.5 -47 q78 0 170 50.5t157 126.5v292q-504 -88 -504 -305zM203 1188l200 291h193l205 -291h-164l-137 192l-133 -192h-164z" />
<glyph unicode="&#xe3;" d="M86 272q0 174 147.5 272.5t503.5 162.5v57q0 195 -219 194q-207 0 -272 -165l-129 67q125 225 399 225q154 0 252 -71q117 -86 117 -248v-537q0 -135 24 -229h-151l-17 147q-152 -168 -352 -167q-129 0 -213 73q-90 80 -90 219zM233 270q0 -70 55.5 -117t121.5 -47 q78 0 170 50.5t157 126.5v292q-504 -88 -504 -305zM151 1206q10 98 66.5 161t153.5 63q59 0 150 -38t132 -38q82 0 96 90h103q-8 -82 -62 -148q-59 -72 -137 -71q-55 0 -159.5 39t-153.5 39q-31 0 -57.5 -31t-28.5 -66h-103z" />
<glyph unicode="&#xe4;" d="M86 272q0 174 147.5 272.5t503.5 162.5v57q0 195 -219 194q-207 0 -272 -165l-129 67q125 225 399 225q154 0 252 -71q117 -86 117 -248v-537q0 -135 24 -229h-151l-17 147q-152 -168 -352 -167q-129 0 -213 73q-90 80 -90 219zM233 270q0 -70 55.5 -117t121.5 -47 q78 0 170 50.5t157 126.5v292q-504 -88 -504 -305zM250 1208v193h180v-193h-180zM573 1208v193h181v-193h-181z" />
<glyph unicode="&#xe5;" d="M86 272q0 174 147.5 272.5t503.5 162.5v57q0 195 -219 194q-207 0 -272 -165l-129 67q125 225 399 225q154 0 252 -71q117 -86 117 -248v-537q0 -135 24 -229h-151l-17 147q-152 -168 -352 -167q-129 0 -213 73q-90 80 -90 219zM233 270q0 -70 55.5 -117t121.5 -47 q78 0 170 50.5t157 126.5v292q-504 -88 -504 -305zM297 1393q0 84 60.5 144t144.5 60t144 -60t60 -144t-60 -144.5t-144 -60.5t-144.5 60.5t-60.5 144.5zM387 1393q0 -47 34 -81t81 -34t80.5 34t33.5 81t-33.5 80.5t-80.5 33.5t-81 -33.5t-34 -80.5z" />
<glyph unicode="&#xe6;" horiz-adv-x="1593" d="M70 250q0 215 190 328q133 78 428 129v57q0 195 -201 194q-199 0 -264 -165l-125 67q117 225 381 225q215 0 307 -143q115 143 308 143q172 0 278 -114q119 -127 119 -369v-98h-655q0 -397 303 -398q170 0 270 181l115 -60q-66 -115 -140 -170q-102 -78 -258 -77 q-240 0 -356 180q-109 -106 -211 -148q-84 -33 -199 -32q-113 0 -196 71q-94 76 -94 199zM217 270q0 -72 51 -118t121 -46q94 0 186 58q80 51 113 110v301q-471 -94 -471 -305zM836 631h507q0 150 -69.5 238.5t-188.5 88.5q-243 1 -249 -327z" />
<glyph unicode="&#xe7;" d="M82 532q0 256 117.5 404.5t318.5 148.5q272 0 389 -288l-137 -49q-68 211 -252 210q-137 0 -213 -111.5t-76 -314.5t76 -314.5t213 -111.5q102 0 167 42t126 155l119 -53q-86 -145 -166 -203q-96 -68 -246 -67q-201 0 -318.5 148t-117.5 404zM286 -416l35 90 q61 -39 135 -39q115 0 115 89q0 78 -84 77q-53 0 -94 -16l-35 39l129 176h98l-96 -119l4 -4q31 10 62 10q84 0 129 -50t43 -122q-4 -174 -248 -174q-99 0 -193 43z" />
<glyph unicode="&#xe8;" d="M82 532q0 256 117.5 404.5t316.5 148.5q178 0 287 -114q119 -127 119 -369v-98h-693q0 -174 91.5 -286t224.5 -112q195 0 295 181l114 -60q-66 -115 -139 -170q-109 -78 -270 -77q-195 0 -320 131q-143 147 -143 421zM233 631h541q0 150 -67.5 238.5t-186.5 88.5 q-131 0 -204 -87.5t-83 -239.5zM239 1479h224l182 -291h-137z" />
<glyph unicode="&#xe9;" d="M82 532q0 256 117.5 404.5t316.5 148.5q178 0 287 -114q119 -127 119 -369v-98h-693q0 -174 91.5 -286t224.5 -112q195 0 295 181l114 -60q-66 -115 -139 -170q-109 -78 -270 -77q-195 0 -320 131q-143 147 -143 421zM233 631h541q0 150 -67.5 238.5t-186.5 88.5 q-131 0 -204 -87.5t-83 -239.5zM379 1188l182 291h223l-268 -291h-137z" />
<glyph unicode="&#xea;" d="M82 532q0 256 117.5 404.5t316.5 148.5q178 0 287 -114q119 -127 119 -369v-98h-693q0 -174 91.5 -286t224.5 -112q195 0 295 181l114 -60q-66 -115 -139 -170q-109 -78 -270 -77q-195 0 -320 131q-143 147 -143 421zM233 631h541q0 150 -67.5 238.5t-186.5 88.5 q-131 0 -204 -87.5t-83 -239.5zM213 1188l200 291h193l205 -291h-164l-137 192l-133 -192h-164z" />
<glyph unicode="&#xeb;" d="M82 532q0 256 117.5 404.5t316.5 148.5q178 0 287 -114q119 -127 119 -369v-98h-693q0 -174 91.5 -286t224.5 -112q195 0 295 181l114 -60q-66 -115 -139 -170q-109 -78 -270 -77q-195 0 -320 131q-143 147 -143 421zM233 631h541q0 150 -67.5 238.5t-186.5 88.5 q-131 0 -204 -87.5t-83 -239.5zM260 1208v193h180v-193h-180zM583 1208v193h181v-193h-181z" />
<glyph unicode="&#xec;" horiz-adv-x="569" d="M211 0v1065h147v-1065h-147zM12 1479h224l182 -291h-137z" />
<glyph unicode="&#xed;" horiz-adv-x="569" d="M211 0v1065h147v-1065h-147zM152 1188l182 291h223l-268 -291h-137z" />
<glyph unicode="&#xee;" horiz-adv-x="569" d="M211 0v1065h147v-1065h-147zM-14 1188l200 291h193l205 -291h-164l-137 192l-133 -192h-164z" />
<glyph unicode="&#xef;" horiz-adv-x="569" d="M211 0v1065h147v-1065h-147zM33 1208v193h180v-193h-180zM356 1208v193h181v-193h-181z" />
<glyph unicode="&#xf0;" d="M76 504q0 238 108 373q115 143 328 143q59 0 152 -29q-41 88 -132 189l-217 -119l-69 98l207 113q-104 102 -191 158l129 49q92 -57 174 -140l226 123l61 -102l-199 -113q295 -338 295 -719q0 -248 -108 -393q-117 -156 -328 -155q-213 0 -328 143q-108 137 -108 381z M223 504q0 -186 72 -289q74 -109 217 -109t217 109q72 102 72 289q0 180 -74 284.5t-215 104.5t-215 -104.5t-74 -284.5z" />
<glyph unicode="&#xf1;" horiz-adv-x="1138" d="M182 0v1065h148v-143h4q145 164 315 163q131 0 213 -69q94 -82 94 -242v-774h-147v770q0 188 -174 188q-154 0 -305 -161v-797h-148zM219 1206q10 98 66.5 161t153.5 63q59 0 150 -38t132 -38q82 0 96 90h103q-8 -82 -62 -148q-59 -72 -137 -71q-55 0 -159.5 39 t-153.5 39q-31 0 -57.5 -31t-28.5 -66h-103z" />
<glyph unicode="&#xf2;" d="M76 532q0 242 108 392q119 162 328 161q209 0 328 -161q109 -150 108 -392q0 -242 -108 -391q-119 -162 -328 -161q-209 0 -328 161q-108 149 -108 391zM223 532q0 -203 78 -314.5t211 -111.5t211 112t78 314q0 203 -78 314.5t-211 111.5t-211 -111.5t-78 -314.5z M239 1479h224l182 -291h-137z" />
<glyph unicode="&#xf3;" d="M76 532q0 242 108 392q119 162 328 161q209 0 328 -161q109 -150 108 -392q0 -242 -108 -391q-119 -162 -328 -161q-209 0 -328 161q-108 149 -108 391zM223 532q0 -203 78 -314.5t211 -111.5t211 112t78 314q0 203 -78 314.5t-211 111.5t-211 -111.5t-78 -314.5z M379 1188l182 291h223l-268 -291h-137z" />
<glyph unicode="&#xf4;" d="M76 532q0 242 108 392q119 162 328 161q209 0 328 -161q109 -150 108 -392q0 -242 -108 -391q-119 -162 -328 -161q-209 0 -328 161q-108 149 -108 391zM223 532q0 -203 78 -314.5t211 -111.5t211 112t78 314q0 203 -78 314.5t-211 111.5t-211 -111.5t-78 -314.5z M213 1188l200 291h193l205 -291h-164l-137 192l-133 -192h-164z" />
<glyph unicode="&#xf5;" d="M76 532q0 242 108 392q119 162 328 161q209 0 328 -161q109 -150 108 -392q0 -242 -108 -391q-119 -162 -328 -161q-209 0 -328 161q-108 149 -108 391zM223 532q0 -203 78 -314.5t211 -111.5t211 112t78 314q0 203 -78 314.5t-211 111.5t-211 -111.5t-78 -314.5z M161 1206q10 98 66.5 161t153.5 63q59 0 150 -38t132 -38q82 0 96 90h103q-8 -82 -62 -148q-59 -72 -137 -71q-55 0 -159.5 39t-153.5 39q-31 0 -57.5 -31t-28.5 -66h-103z" />
<glyph unicode="&#xf6;" d="M76 532q0 242 108 392q119 162 328 161q209 0 328 -161q109 -150 108 -392q0 -242 -108 -391q-119 -162 -328 -161q-209 0 -328 161q-108 149 -108 391zM223 532q0 -203 78 -314.5t211 -111.5t211 112t78 314q0 203 -78 314.5t-211 111.5t-211 -111.5t-78 -314.5z M260 1208v193h180v-193h-180zM583 1208v193h181v-193h-181z" />
<glyph unicode="&#xf7;" horiz-adv-x="1228" d="M82 469v127h1065v-127h-1065zM487 106q0 53 38 90t89 37q53 0 90 -36.5t37 -90.5q0 -51 -36.5 -88.5t-90.5 -37.5q-51 0 -89 37.5t-38 88.5zM487 958q0 53 38 90t89 37q53 0 90 -36.5t37 -90.5q0 -51 -36.5 -89t-90.5 -38q-51 0 -89 38t-38 89z" />
<glyph unicode="&#xf8;" d="M33 -168l170 289q-127 152 -127 411q0 242 108 392q119 162 328 161q129 0 221 -63l125 211h133l-168 -287q125 -154 125 -414q0 -242 -108 -391q-119 -162 -328 -161q-135 0 -223 63l-125 -211h-131zM223 532q0 -174 58 -278l385 653q-63 51 -154 51q-133 0 -211 -111.5 t-78 -314.5zM356 158q63 -51 156 -52q133 0 211 112t78 314q0 174 -58 279z" />
<glyph unicode="&#xf9;" horiz-adv-x="1138" d="M182 291v774h148v-770q0 -188 174 -189q154 0 305 162v797h147v-1065h-147v143h-4q-145 -164 -316 -163q-131 0 -213 69q-94 82 -94 242zM297 1479h224l182 -291h-137z" />
<glyph unicode="&#xfa;" horiz-adv-x="1138" d="M182 291v774h148v-770q0 -188 174 -189q154 0 305 162v797h147v-1065h-147v143h-4q-145 -164 -316 -163q-131 0 -213 69q-94 82 -94 242zM437 1188l182 291h223l-268 -291h-137z" />
<glyph unicode="&#xfb;" horiz-adv-x="1138" d="M182 291v774h148v-770q0 -188 174 -189q154 0 305 162v797h147v-1065h-147v143h-4q-145 -164 -316 -163q-131 0 -213 69q-94 82 -94 242zM271 1188l200 291h193l205 -291h-164l-137 192l-133 -192h-164z" />
<glyph unicode="&#xfc;" horiz-adv-x="1138" d="M182 291v774h148v-770q0 -188 174 -189q154 0 305 162v797h147v-1065h-147v143h-4q-145 -164 -316 -163q-131 0 -213 69q-94 82 -94 242zM318 1208v193h180v-193h-180zM641 1208v193h181v-193h-181z" />
<glyph unicode="&#xfd;" horiz-adv-x="909" d="M25 1065h155l287 -813h4l250 813h156l-375 -1159q-96 -299 -359 -299q-20 0 -106 12v121q61 -6 80 -6q223 0 278 254zM322 1188l182 291h223l-268 -291h-137z" />
<glyph unicode="&#xfe;" horiz-adv-x="1138" d="M180 -393v1872h148v-539h4q43 61 121.5 103t154.5 42q172 0 289 -116q147 -147 147 -437q0 -283 -145 -432q-119 -121 -283 -120q-137 0 -280 118l-8 4v-495h-148zM328 254q133 -147 268 -148q301 0 301 435q0 201 -81 309t-220 108q-123 0 -268 -143v-561z" />
<glyph unicode="&#xff;" horiz-adv-x="909" d="M25 1065h155l287 -813h4l250 813h156l-375 -1159q-96 -299 -359 -299q-20 0 -106 12v121q61 -6 80 -6q223 0 278 254zM203 1208v193h180v-193h-180zM526 1208v193h181v-193h-181z" />
<glyph unicode="&#x131;" horiz-adv-x="569" d="M211 0v1065h147v-1065h-147z" />
<glyph unicode="&#x152;" horiz-adv-x="2048" d="M74 739q0 344 147 541q164 219 488 219q70 0 181 -10t159 -10h882v-140h-723v-495h514v-139h-514v-566h764v-139h-923q-47 0 -159 -10t-181 -10q-324 0 -488 219q-147 196 -147 540zM238 739q0 -621 467 -620q172 0 255.5 60.5t83.5 205.5v709q0 145 -86 209 q-82 57 -253 57q-467 0 -467 -621z" />
<glyph unicode="&#x153;" horiz-adv-x="1593" d="M47 532q0 254 113.5 403.5t298.5 149.5q225 0 344 -190q90 190 340 190q166 0 272 -114q117 -129 117 -369v-98h-655q0 -397 278 -398q201 0 275 181l114 -60q-109 -248 -389 -247q-258 0 -352 194q-115 -195 -344 -194q-184 0 -298 149t-114 403zM195 532 q0 -203 68.5 -314.5t195.5 -111.5q270 0 270 426t-270 426q-127 0 -195.5 -111.5t-68.5 -314.5zM881 631h503q0 150 -67.5 238.5t-186.5 88.5q-243 1 -249 -327z" />
<glyph unicode="&#x178;" horiz-adv-x="1138" d="M33 1479h180l356 -678l357 678h180l-455 -856v-623h-164v623zM318 1577v193h180v-193h-180zM641 1577v193h181v-193h-181z" />
<glyph unicode="&#x2c6;" horiz-adv-x="569" d="M-14 1188l200 291h193l205 -291h-164l-137 192l-133 -192h-164z" />
<glyph unicode="&#x2da;" horiz-adv-x="569" d="M80 1393q0 84 60.5 144t144.5 60t144 -60t60 -144t-60 -144.5t-144 -60.5t-144.5 60.5t-60.5 144.5zM170 1393q0 -47 34 -81t81 -34t80.5 34t33.5 81t-33.5 80.5t-80.5 33.5t-81 -33.5t-34 -80.5z" />
<glyph unicode="&#x2dc;" horiz-adv-x="569" d="M-66 1206q10 98 66.5 161t153.5 63q59 0 150 -38t132 -38q82 0 96 90h103q-8 -82 -62 -148q-59 -72 -137 -71q-55 0 -159.5 39t-153.5 39q-31 0 -57.5 -31t-28.5 -66h-103z" />
<glyph unicode="&#x2000;" horiz-adv-x="983" />
<glyph unicode="&#x2001;" horiz-adv-x="1966" />
<glyph unicode="&#x2002;" horiz-adv-x="983" />
<glyph unicode="&#x2003;" horiz-adv-x="1966" />
<glyph unicode="&#x2004;" horiz-adv-x="655" />
<glyph unicode="&#x2005;" horiz-adv-x="491" />
<glyph unicode="&#x2006;" horiz-adv-x="327" />
<glyph unicode="&#x2007;" horiz-adv-x="327" />
<glyph unicode="&#x2008;" horiz-adv-x="245" />
<glyph unicode="&#x2009;" horiz-adv-x="393" />
<glyph unicode="&#x200a;" horiz-adv-x="108" />
<glyph unicode="&#x2010;" horiz-adv-x="681" d="M82 469v127h516v-127h-516z" />
<glyph unicode="&#x2011;" horiz-adv-x="681" d="M82 469v127h516v-127h-516z" />
<glyph unicode="&#x2012;" horiz-adv-x="681" d="M82 469v127h516v-127h-516z" />
<glyph unicode="&#x2013;" d="M0 481v103h1024v-103h-1024z" />
<glyph unicode="&#x2014;" horiz-adv-x="2048" d="M0 481v103h2048v-103h-2048z" />
<glyph unicode="&#x2018;" horiz-adv-x="569" d="M178 983v225l129 291h86l-96 -291h82v-225h-201z" />
<glyph unicode="&#x2019;" horiz-adv-x="569" d="M176 963l96 290h-82v226h201v-226l-129 -290h-86z" />
<glyph unicode="&#x201a;" horiz-adv-x="569" d="M176 -291l96 291h-82v225h201v-225l-129 -291h-86z" />
<glyph unicode="&#x201c;" d="M211 983v225l129 291h86l-96 -291h82v-225h-201zM629 983v225l129 291h86l-96 -291h81v-225h-200z" />
<glyph unicode="&#x201d;" d="M180 963l96 290h-81v226h200v-226l-129 -290h-86zM598 963l96 290h-82v226h201v-226l-129 -290h-86z" />
<glyph unicode="&#x201e;" d="M180 -291l96 291h-81v225h200v-225l-129 -291h-86zM598 -291l96 291h-82v225h201v-225l-129 -291h-86z" />
<glyph unicode="&#x2022;" d="M141 739q0 154 107.5 261.5t261.5 107.5t262.5 -107.5t108.5 -261.5t-108.5 -262t-262.5 -108t-261.5 108t-107.5 262z" />
<glyph unicode="&#x2026;" horiz-adv-x="2048" d="M242 0v225h200v-225h-200zM924 0v225h200v-225h-200zM1606 0v225h200v-225h-200z" />
<glyph unicode="&#x202f;" horiz-adv-x="393" />
<glyph unicode="&#x2039;" horiz-adv-x="681" d="M111 532l266 324h143l-264 -324l264 -323h-139z" />
<glyph unicode="&#x203a;" horiz-adv-x="681" d="M162 209l264 323l-264 324h143l266 -324l-270 -323h-139z" />
<glyph unicode="&#x205f;" horiz-adv-x="491" />
<glyph unicode="&#x2122;" horiz-adv-x="2027" d="M111 1368v111h659v-111h-262v-733h-139v733h-258zM893 635v844h215l254 -639l246 639h215v-844h-140v704h-4l-276 -704h-90l-277 704h-4v-704h-139z" />
<glyph unicode="&#xe000;" horiz-adv-x="1065" d="M0 1065h1065v-1065h-1065v1065z" />
<glyph unicode="&#xfb01;" horiz-adv-x="1251" d="M893 0v1065h147v-1065h-147zM893 1323v176h147v-176h-147zM55 938v127h181v121q0 180 65 252q57 61 195 61q25 0 131 -10v-131q-108 13 -108 14h1q-76 0 -106.5 -31.5t-30.5 -119.5v-156h231v-127h-231v-938h-147v938h-181z" />
<glyph unicode="&#xfb02;" horiz-adv-x="1251" d="M893 0v1479h147v-1479h-147zM55 938v127h181v121q0 180 65 252q57 61 195 61q25 0 131 -10v-131q-108 13 -108 14h1q-76 0 -106.5 -31.5t-30.5 -119.5v-156h231v-127h-231v-938h-147v938h-181z" />
<glyph unicode="&#xfb03;" horiz-adv-x="1933" d="M1575 0v1065h147v-1065h-147zM1575 1323v176h147v-176h-147zM737 938v127h181v121q0 180 65 252q57 61 195 61q25 0 131 -10v-131q-108 13 -108 14h1q-76 0 -106.5 -31.5t-30.5 -119.5v-156h231v-127h-231v-938h-147v938h-181zM55 938v127h181v121q0 180 65 252 q57 61 195 61q25 0 131 -10v-131q-108 13 -108 14h1q-76 0 -106.5 -31.5t-30.5 -119.5v-156h231v-127h-231v-938h-147v938h-181z" />
<glyph unicode="&#xfb04;" horiz-adv-x="1933" d="M1575 0v1479h147v-1479h-147zM737 938v127h181v121q0 180 65 252q57 61 195 61q25 0 131 -10v-131q-108 13 -108 14h1q-76 0 -106.5 -31.5t-30.5 -119.5v-156h231v-127h-231v-938h-147v938h-181zM55 938v127h181v121q0 180 65 252q57 61 195 61q25 0 131 -10v-131 q-108 13 -108 14h1q-76 0 -106.5 -31.5t-30.5 -119.5v-156h231v-127h-231v-938h-147v938h-181z" />
</font>
</defs>
</svg>
